<svg xmlns="http://www.w3.org/2000/svg"  viewBox="0 0 24 24" width="48px" height="48px"><path d="M11.425,9.4c0.18-0.262,0.377-0.296,0.537-0.296c0.159,0,0.426,0.034,0.605,0.296c2.344,3.193,7.206,11.616,7.655,12.075	c0.666,0.679,1.579,0.256,2.11-0.514C22.855,20.201,23,19.669,23,19.101c0-0.387-7.571-14.354-8.334-15.517	c-0.733-1.119-0.972-1.401-2.226-1.401h-0.939c-1.252,0-1.433,0.282-2.166,1.4C8.571,4.748,1,18.715,1,19.102	c0,0.569,0.145,1.1,0.668,1.859c0.53,0.77,1.444,1.195,2.11,0.514c0.449-0.459,5.304-8.882,7.647-12.074L11.425,9.4z"/></svg>